<svg width="122" height="26" viewBox="0 0 122 26" fill="none" xmlns="http://www.w3.org/2000/svg">
<path d="M105.184 25.5357C104.936 25.5357 104.734 25.457 104.576 25.2995C104.419 25.142 104.34 24.9395 104.34 24.692V2.41605C104.34 2.16854 104.419 1.96603 104.576 1.80853C104.734 1.65102 104.936 1.57227 105.184 1.57227H108.829C109.054 1.57227 109.245 1.65102 109.403 1.80853C109.56 1.96603 109.639 2.16854 109.639 2.41605V10.0101C110.246 9.29008 110.989 8.71631 111.866 8.28879C112.744 7.86127 113.801 7.64751 115.039 7.64751C116.367 7.64751 117.537 7.95128 118.549 8.5588C119.584 9.14383 120.394 10.0101 120.979 11.1577C121.564 12.2827 121.857 13.6553 121.857 15.2753V24.692C121.857 24.9395 121.778 25.142 121.621 25.2995C121.463 25.457 121.261 25.5357 121.013 25.5357H117.334C117.109 25.5357 116.918 25.457 116.76 25.2995C116.603 25.142 116.524 24.9395 116.524 24.692V15.4778C116.524 14.2853 116.232 13.3627 115.647 12.7102C115.062 12.0352 114.229 11.6977 113.149 11.6977C112.091 11.6977 111.236 12.0352 110.584 12.7102C109.954 13.3627 109.639 14.2853 109.639 15.4778V24.692C109.639 24.9395 109.56 25.142 109.403 25.2995C109.245 25.457 109.054 25.5357 108.829 25.5357H105.184Z" fill="black"/>
<path d="M99.6751 25.5357C98.28 25.5357 97.0875 25.3107 96.0975 24.8607C95.1074 24.3882 94.3536 23.6682 93.8361 22.7006C93.3411 21.7331 93.0936 20.518 93.0936 19.0555V11.9677H90.461C90.2135 11.9677 90.011 11.8889 89.8534 11.7314C89.6959 11.5739 89.6172 11.3714 89.6172 11.1239V8.82881C89.6172 8.5813 89.6959 8.37879 89.8534 8.22129C90.011 8.06378 90.2135 7.98503 90.461 7.98503H93.0936V2.41605C93.0936 2.16854 93.1723 1.96603 93.3298 1.80853C93.5098 1.65102 93.7124 1.57227 93.9374 1.57227H97.245C97.4925 1.57227 97.695 1.65102 97.8525 1.80853C98.01 1.96603 98.0888 2.16854 98.0888 2.41605V7.98503H102.308C102.533 7.98503 102.724 8.06378 102.881 8.22129C103.039 8.37879 103.118 8.5813 103.118 8.82881V11.1239C103.118 11.3714 103.039 11.5739 102.881 11.7314C102.724 11.8889 102.533 11.9677 102.308 11.9677H98.0888V18.6505C98.0888 19.5055 98.235 20.1805 98.5276 20.6755C98.8426 21.1481 99.3826 21.3843 100.148 21.3843H102.611C102.836 21.3843 103.028 21.4631 103.185 21.6206C103.343 21.7781 103.422 21.9693 103.422 22.1944V24.692C103.422 24.9395 103.343 25.142 103.185 25.2995C103.028 25.457 102.836 25.5357 102.611 25.5357H99.6751Z" fill="black"/>
<path d="M78.9795 25.8732C77.7869 25.8732 76.7181 25.6482 75.7731 25.1982C74.8281 24.7257 74.0743 24.0956 73.5117 23.3081C72.9492 22.5206 72.668 21.643 72.668 20.6755C72.668 19.0779 73.3092 17.8179 74.5918 16.8953C75.8968 15.9728 77.6069 15.3428 79.722 15.0053L84.1434 14.364V13.7565C84.1434 12.8789 83.9409 12.2039 83.5359 11.7314C83.1309 11.2589 82.4221 11.0226 81.4096 11.0226C80.667 11.0226 80.0708 11.1689 79.6207 11.4614C79.1707 11.7539 78.822 12.1364 78.5745 12.6089C78.3944 12.9014 78.1357 13.0477 77.7982 13.0477H74.5918C74.3443 13.0477 74.153 12.9802 74.018 12.8452C73.883 12.6877 73.8268 12.5077 73.8493 12.3052C73.8493 11.9226 73.9955 11.4726 74.288 10.9551C74.5805 10.4376 75.0306 9.9313 75.6381 9.43628C76.2456 8.91876 77.0219 8.49125 77.9669 8.15373C78.912 7.81622 80.0708 7.64746 81.4433 7.64746C82.8609 7.64746 84.0759 7.81622 85.0885 8.15373C86.101 8.49125 86.911 8.96377 87.5186 9.57129C88.1261 10.1788 88.5761 10.8876 88.8686 11.6976C89.1611 12.4852 89.3074 13.3402 89.3074 14.2627V24.6919C89.3074 24.9394 89.2286 25.1419 89.0711 25.2994C88.9136 25.4569 88.7111 25.5357 88.4636 25.5357H85.156C84.931 25.5357 84.7397 25.4569 84.5822 25.2994C84.4247 25.1419 84.3459 24.9394 84.3459 24.6919V23.4431C84.0534 23.8706 83.6597 24.2756 83.1646 24.6582C82.6696 25.0182 82.0733 25.3107 81.3758 25.5357C80.7008 25.7607 79.902 25.8732 78.9795 25.8732ZM80.3295 22.3631C81.0721 22.3631 81.7358 22.2056 82.3209 21.8905C82.9059 21.5755 83.3672 21.0918 83.7047 20.4392C84.0422 19.7867 84.2109 18.9654 84.2109 17.9754V17.4016L81.0721 17.9079C79.857 18.1104 78.9682 18.4141 78.4057 18.8192C77.8432 19.2242 77.5619 19.7192 77.5619 20.3042C77.5619 20.7317 77.6857 21.103 77.9332 21.418C78.2032 21.733 78.552 21.9693 78.9795 22.1268C79.407 22.2843 79.857 22.3631 80.3295 22.3631Z" fill="black"/>
<path d="M61.3585 25.8733C60.2335 25.8733 59.2322 25.6932 58.3547 25.3332C57.4771 24.9507 56.7346 24.4107 56.1271 23.7132C55.5195 22.9931 55.0583 22.1494 54.7433 21.1818C54.4283 20.1918 54.237 19.1005 54.1695 17.9079C54.147 17.4804 54.1357 17.0979 54.1357 16.7604C54.1357 16.4004 54.147 16.0179 54.1695 15.6128C54.2145 14.4428 54.3945 13.374 54.7095 12.4065C55.047 11.4389 55.5083 10.6064 56.0933 9.90886C56.7008 9.18883 57.4434 8.63755 58.3209 8.25504C59.2209 7.85002 60.2335 7.64751 61.3585 7.64751C62.5286 7.64751 63.5299 7.85002 64.3624 8.25504C65.1949 8.63755 65.8812 9.14383 66.4212 9.77385V2.41605C66.4212 2.16854 66.5 1.96603 66.6575 1.80853C66.815 1.65102 67.0175 1.57227 67.265 1.57227H70.7414C70.9664 1.57227 71.1577 1.65102 71.3152 1.80853C71.4727 1.96603 71.5515 2.16854 71.5515 2.41605V24.692C71.5515 24.9395 71.4727 25.142 71.3152 25.2995C71.1577 25.457 70.9664 25.5357 70.7414 25.5357H67.5013C67.2763 25.5357 67.085 25.457 66.9275 25.2995C66.77 25.142 66.6913 24.9395 66.6913 24.692V23.5444C66.1287 24.2194 65.4199 24.782 64.5649 25.232C63.7099 25.6595 62.6411 25.8733 61.3585 25.8733ZM62.9111 21.8231C63.7436 21.8231 64.4074 21.6318 64.9024 21.2493C65.4199 20.8668 65.7912 20.383 66.0162 19.798C66.2637 19.213 66.3987 18.583 66.4212 17.9079C66.4662 17.4804 66.4887 17.0529 66.4887 16.6254C66.4887 16.1979 66.4662 15.7816 66.4212 15.3766C66.3987 14.7466 66.2637 14.1615 66.0162 13.6215C65.7687 13.059 65.3862 12.5977 64.8687 12.2377C64.3737 11.8777 63.7211 11.6977 62.9111 11.6977C62.0561 11.6977 61.381 11.8889 60.886 12.2715C60.391 12.6315 60.031 13.1152 59.806 13.7228C59.6035 14.3303 59.4797 14.9941 59.4347 15.7141C59.3672 16.4116 59.3672 17.1091 59.4347 17.8067C59.4797 18.5267 59.6035 19.1905 59.806 19.798C60.031 20.4055 60.391 20.9006 60.886 21.2831C61.381 21.6431 62.0561 21.8231 62.9111 21.8231Z" fill="black"/>
<path d="M48.4181 25.5355C48.1931 25.5355 48.0019 25.4568 47.8443 25.2993C47.6868 25.1418 47.6081 24.9393 47.6081 24.6918V8.8286C47.6081 8.58109 47.6868 8.37859 47.8443 8.22108C48.0019 8.06357 48.1931 7.98482 48.4181 7.98482H51.7933C52.0408 7.98482 52.2433 8.06357 52.4008 8.22108C52.5583 8.37859 52.637 8.58109 52.637 8.8286V24.6918C52.637 24.9393 52.5583 25.1418 52.4008 25.2993C52.2433 25.4568 52.0408 25.5355 51.7933 25.5355H48.4181ZM48.3169 5.28471C48.0919 5.28471 47.9006 5.20596 47.7431 5.04845C47.5856 4.89094 47.5068 4.68844 47.5068 4.44093V1.74082C47.5068 1.49331 47.5856 1.2908 47.7431 1.13329C47.9006 0.953284 48.0919 0.863281 48.3169 0.863281H51.8608C52.1083 0.863281 52.3108 0.953284 52.4683 1.13329C52.6483 1.2908 52.7383 1.49331 52.7383 1.74082V4.44093C52.7383 4.68844 52.6483 4.89094 52.4683 5.04845C52.3108 5.20596 52.1083 5.28471 51.8608 5.28471H48.3169Z" fill="black"/>
<path d="M35.7759 25.5351C35.5508 25.5351 35.3596 25.4563 35.2021 25.2988C35.0446 25.1413 34.9658 24.9388 34.9658 24.6913V8.82816C34.9658 8.60315 35.0446 8.41189 35.2021 8.25439C35.3596 8.07438 35.5508 7.98438 35.7759 7.98438H39.0835C39.3085 7.98438 39.4998 8.07438 39.6573 8.25439C39.8373 8.41189 39.9273 8.60315 39.9273 8.82816V10.1782C40.4898 9.48069 41.1761 8.94066 41.9861 8.55815C42.8186 8.17563 43.7749 7.98438 44.855 7.98438H46.3063C46.5313 7.98438 46.7225 8.06313 46.8801 8.22064C47.0376 8.37814 47.1163 8.58065 47.1163 8.82816V11.7308C47.1163 11.9783 47.0376 12.1808 46.8801 12.3383C46.7225 12.4958 46.5313 12.5746 46.3063 12.5746H43.3362C42.3461 12.5746 41.5698 12.8558 41.0073 13.4183C40.4448 13.9584 40.1635 14.7347 40.1635 15.7472V24.6913C40.1635 24.9388 40.0848 25.1413 39.9273 25.2988C39.7698 25.4563 39.5673 25.5351 39.3197 25.5351H35.7759Z" fill="black"/>
<path d="M30.2991 25.5357C28.9041 25.5357 27.7115 25.3107 26.7215 24.8607C25.7314 24.3882 24.9777 23.6682 24.4601 22.7006C23.9651 21.7331 23.7176 20.518 23.7176 19.0555V11.9677H21.085C20.8375 11.9677 20.635 11.8889 20.4775 11.7314C20.32 11.5739 20.2412 11.3714 20.2412 11.1239V8.82881C20.2412 8.5813 20.32 8.37879 20.4775 8.22129C20.635 8.06378 20.8375 7.98503 21.085 7.98503H23.7176V2.41605C23.7176 2.16854 23.7964 1.96603 23.9539 1.80853C24.1339 1.65102 24.3364 1.57227 24.5614 1.57227H27.869C28.1165 1.57227 28.319 1.65102 28.4765 1.80853C28.6341 1.96603 28.7128 2.16854 28.7128 2.41605V7.98503H32.9317C33.1567 7.98503 33.348 8.06378 33.5055 8.22129C33.663 8.37879 33.7418 8.5813 33.7418 8.82881V11.1239C33.7418 11.3714 33.663 11.5739 33.5055 11.7314C33.348 11.8889 33.1567 11.9677 32.9317 11.9677H28.7128V18.6505C28.7128 19.5055 28.8591 20.1805 29.1516 20.6755C29.4666 21.1481 30.0066 21.3843 30.7716 21.3843H33.2355C33.4605 21.3843 33.6518 21.4631 33.8093 21.6206C33.9668 21.7781 34.0455 21.9693 34.0455 22.1944V24.692C34.0455 24.9395 33.9668 25.142 33.8093 25.2995C33.6518 25.457 33.4605 25.5357 33.2355 25.5357H30.2991Z" fill="black"/>
<path fill-rule="evenodd" clip-rule="evenodd" d="M5.31163 24.9282C6.77419 25.5582 8.58551 25.8733 10.7456 25.8733C12.7032 25.8733 14.4132 25.592 15.8758 25.0295C17.3609 24.4444 18.5197 23.6119 19.3522 22.5319C20.2072 21.4518 20.6348 20.158 20.6348 18.6505C20.6348 17.3004 20.3422 16.1866 19.7572 15.3091C19.1722 14.409 18.2609 13.6778 17.0234 13.1152C16.4206 12.8412 15.7297 12.5859 14.9508 12.3493L11.7378 16.1887C12.0799 16.2918 12.3905 16.3924 12.6694 16.4904C13.5245 16.7829 14.1432 17.1091 14.5258 17.4692C14.9308 17.8292 15.1333 18.3017 15.1333 18.8867C15.1333 19.6968 14.762 20.338 14.0195 20.8106C13.2995 21.2831 12.2082 21.5193 10.7456 21.5193C9.84556 21.5193 9.09178 21.4068 8.48426 21.1818C7.87673 20.9343 7.39296 20.6305 7.03295 20.2705C6.69543 19.9105 6.44792 19.5392 6.29042 19.1567C6.15541 18.9767 6.00916 18.8305 5.85165 18.718C5.69414 18.583 5.46913 18.5155 5.17662 18.5155H1.56522C1.36272 18.5155 1.19396 18.5942 1.05895 18.7517C0.923948 18.8867 0.856445 19.0442 0.856445 19.2242C0.901447 20.3718 1.29521 21.4518 2.03774 22.4644C2.78027 23.4769 3.87157 24.2982 5.31163 24.9282ZM9.63557 10.932L6.44245 14.7476C5.92996 14.5663 5.45177 14.3709 5.00786 14.1615C3.83782 13.5765 2.94903 12.834 2.34151 11.9339C1.75648 11.0114 1.46397 9.8751 1.46397 8.52505C1.46397 7.175 1.83524 5.98245 2.57777 4.9474C3.3203 3.88986 4.36659 3.06858 5.71664 2.48355C7.0667 1.87603 8.67551 1.57227 10.5431 1.57227C12.0507 1.57227 13.3782 1.77477 14.5258 2.17979C15.6958 2.58481 16.6633 3.11358 17.4284 3.7661C18.2159 4.41863 18.8122 5.11616 19.2172 5.85869C19.6222 6.60122 19.836 7.32125 19.8585 8.01878C19.8585 8.19879 19.791 8.36754 19.656 8.52505C19.521 8.66006 19.3522 8.72756 19.1497 8.72756H15.3695C15.1445 8.72756 14.942 8.68256 14.762 8.59255C14.582 8.50255 14.4357 8.34504 14.3232 8.12003C14.1882 7.53501 13.7832 7.02874 13.1082 6.60122C12.4557 6.1512 11.6006 5.92619 10.5431 5.92619C9.44055 5.92619 8.56301 6.1287 7.91048 6.53372C7.28046 6.93873 6.96544 7.55751 6.96544 8.39004C6.96544 8.93007 7.12295 9.39134 7.43796 9.77385C7.77548 10.1339 8.32675 10.4601 9.09178 10.7526C9.26154 10.8108 9.4428 10.8706 9.63557 10.932Z" fill="black"/>
</svg>
