<svg width="151" height="32" viewBox="0 0 151 32" fill="none" xmlns="http://www.w3.org/2000/svg">
<path d="M129.688 31.4518C129.381 31.4518 129.13 31.3542 128.934 31.1589C128.739 30.9636 128.642 30.7126 128.642 30.4058V2.79113C128.642 2.4843 128.739 2.23326 128.934 2.038C129.13 1.84275 129.381 1.74512 129.688 1.74512H134.206C134.485 1.74512 134.722 1.84275 134.918 2.038C135.113 2.23326 135.211 2.4843 135.211 2.79113V12.2052C135.964 11.3126 136.884 10.6013 137.972 10.0713C139.06 9.54137 140.371 9.27638 141.905 9.27638C143.551 9.27638 145.001 9.65295 146.256 10.4061C147.539 11.1313 148.544 12.2052 149.269 13.6278C149.994 15.0225 150.357 16.724 150.357 18.7323V30.4058C150.357 30.7126 150.259 30.9636 150.064 31.1589C149.869 31.3542 149.618 31.4518 149.311 31.4518H144.75C144.471 31.4518 144.234 31.3542 144.039 31.1589C143.844 30.9636 143.746 30.7126 143.746 30.4058V18.9834C143.746 17.505 143.383 16.3614 142.658 15.5524C141.933 14.7156 140.901 14.2972 139.562 14.2972C138.251 14.2972 137.191 14.7156 136.382 15.5524C135.601 16.3614 135.211 17.505 135.211 18.9834V30.4058C135.211 30.7126 135.113 30.9636 134.918 31.1589C134.722 31.3542 134.485 31.4518 134.206 31.4518H129.688Z" fill="black"/>
<path d="M122.859 31.4518C121.13 31.4518 119.651 31.1728 118.424 30.615C117.197 30.0292 116.262 29.1366 115.621 27.9372C115.007 26.7378 114.7 25.2315 114.7 23.4184V14.632H111.437C111.13 14.632 110.879 14.5343 110.684 14.3391C110.488 14.1438 110.391 13.8928 110.391 13.5859V10.7408C110.391 10.434 110.488 10.1829 110.684 9.98767C110.879 9.79241 111.13 9.69479 111.437 9.69479H114.7V2.79113C114.7 2.4843 114.798 2.23326 114.993 2.038C115.216 1.84275 115.467 1.74512 115.746 1.74512H119.847C120.153 1.74512 120.404 1.84275 120.6 2.038C120.795 2.23326 120.893 2.4843 120.893 2.79113V9.69479H126.123C126.402 9.69479 126.639 9.79241 126.834 9.98767C127.029 10.1829 127.127 10.434 127.127 10.7408V13.5859C127.127 13.8928 127.029 14.1438 126.834 14.3391C126.639 14.5343 126.402 14.632 126.123 14.632H120.893V22.9163C120.893 23.9763 121.074 24.8131 121.436 25.4268C121.827 26.0125 122.496 26.3054 123.445 26.3054H126.499C126.778 26.3054 127.015 26.403 127.21 26.5983C127.406 26.7936 127.503 27.0306 127.503 27.3096V30.4058C127.503 30.7126 127.406 30.9636 127.21 31.1589C127.015 31.3542 126.778 31.4518 126.499 31.4518H122.859Z" fill="black"/>
<path d="M97.2031 31.8702C95.7247 31.8702 94.3997 31.5912 93.2282 31.0334C92.0567 30.4476 91.1223 29.6666 90.4249 28.6903C89.7276 27.714 89.3789 26.6262 89.3789 25.4267C89.3789 23.4463 90.1739 21.8843 91.7638 20.7406C93.3816 19.597 95.5015 18.816 98.1235 18.3976L103.605 17.6026V16.8495C103.605 15.7616 103.354 14.9248 102.852 14.3391C102.349 13.7533 101.471 13.4604 100.216 13.4604C99.2951 13.4604 98.5559 13.6417 97.998 14.0043C97.4401 14.3669 97.0078 14.8411 96.701 15.4269C96.4778 15.7895 96.157 15.9708 95.7386 15.9708H91.7638C91.457 15.9708 91.2199 15.8871 91.0525 15.7198C90.8852 15.5245 90.8154 15.3014 90.8433 15.0503C90.8433 14.5761 91.0246 14.0183 91.3872 13.3767C91.7499 12.7352 92.3077 12.1076 93.0609 11.4939C93.814 10.8524 94.7763 10.3224 95.9478 9.90397C97.1194 9.48557 98.5559 9.27637 100.257 9.27637C102.015 9.27637 103.521 9.48557 104.776 9.90397C106.031 10.3224 107.036 10.9081 107.789 11.6613C108.542 12.4144 109.1 13.293 109.462 14.2972C109.825 15.2735 110.006 16.3334 110.006 17.4771V30.4058C110.006 30.7126 109.909 30.9636 109.713 31.1589C109.518 31.3541 109.267 31.4518 108.96 31.4518H104.86C104.581 31.4518 104.344 31.3541 104.149 31.1589C103.953 30.9636 103.856 30.7126 103.856 30.4058V28.8577C103.493 29.3876 103.005 29.8897 102.391 30.3639C101.778 30.8102 101.038 31.1728 100.174 31.4518C99.3369 31.7307 98.3467 31.8702 97.2031 31.8702ZM98.8767 27.5188C99.7972 27.5188 100.62 27.3235 101.345 26.933C102.07 26.5425 102.642 25.9428 103.061 25.1339C103.479 24.325 103.688 23.3068 103.688 22.0795V21.3682L99.7972 21.9958C98.2909 22.2469 97.1891 22.6234 96.4918 23.1255C95.7944 23.6276 95.4458 24.2413 95.4458 24.9665C95.4458 25.4965 95.5992 25.9567 95.906 26.3472C96.2407 26.7377 96.6731 27.0306 97.2031 27.2259C97.733 27.4211 98.2909 27.5188 98.8767 27.5188Z" fill="black"/>
<path d="M75.3591 31.8702C73.9644 31.8702 72.7232 31.647 71.6353 31.2007C70.5475 30.7265 69.627 30.0571 68.8739 29.1924C68.1207 28.2998 67.5489 27.2538 67.1584 26.0544C66.7679 24.8271 66.5308 23.4742 66.4471 21.9959C66.4192 21.4659 66.4053 20.9917 66.4053 20.5733C66.4053 20.127 66.4192 19.6528 66.4471 19.1507C66.5029 17.7002 66.726 16.3753 67.1166 15.1759C67.535 13.9765 68.1068 12.9444 68.832 12.0797C69.5851 11.1871 70.5056 10.5037 71.5935 10.0295C72.7092 9.52743 73.9644 9.27638 75.3591 9.27638C76.8096 9.27638 78.0508 9.52743 79.0829 10.0295C80.115 10.5037 80.9657 11.1313 81.6352 11.9123V2.79113C81.6352 2.4843 81.7328 2.23326 81.928 2.038C82.1233 1.84275 82.3743 1.74512 82.6812 1.74512H86.9907C87.2697 1.74512 87.5068 1.84275 87.702 2.038C87.8973 2.23326 87.9949 2.4843 87.9949 2.79113V30.4058C87.9949 30.7126 87.8973 30.9636 87.702 31.1589C87.5068 31.3542 87.2697 31.4518 86.9907 31.4518H82.9741C82.6951 31.4518 82.458 31.3542 82.2628 31.1589C82.0675 30.9636 81.9699 30.7126 81.9699 30.4058V28.9832C81.2725 29.82 80.3939 30.5173 79.3339 31.0752C78.274 31.6052 76.949 31.8702 75.3591 31.8702ZM77.2838 26.8493C78.3158 26.8493 79.1387 26.6122 79.7523 26.1381C80.3939 25.6639 80.8541 25.0642 81.1331 24.3389C81.4399 23.6137 81.6073 22.8327 81.6352 21.9959C81.691 21.4659 81.7188 20.9359 81.7188 20.4059C81.7188 19.8759 81.691 19.3599 81.6352 18.8578C81.6073 18.0768 81.4399 17.3516 81.1331 16.6821C80.8263 15.9848 80.3521 15.413 79.7105 14.9667C79.0968 14.5204 78.2879 14.2972 77.2838 14.2972C76.2238 14.2972 75.387 14.5343 74.7733 15.0085C74.1597 15.4548 73.7134 16.0545 73.4345 16.8077C73.1834 17.5608 73.03 18.3836 72.9742 19.2762C72.8905 20.1409 72.8905 21.0056 72.9742 21.8703C73.03 22.7629 73.1834 23.5858 73.4345 24.3389C73.7134 25.092 74.1597 25.7057 74.7733 26.1799C75.387 26.6262 76.2238 26.8493 77.2838 26.8493Z" fill="black"/>
<path d="M59.3172 31.4515C59.0383 31.4515 58.8012 31.3539 58.6059 31.1586C58.4106 30.9634 58.313 30.7123 58.313 30.4055V10.7405C58.313 10.4337 58.4106 10.1827 58.6059 9.98741C58.8012 9.79216 59.0383 9.69453 59.3172 9.69453H63.5012C63.8081 9.69453 64.0591 9.79216 64.2544 9.98741C64.4496 10.1827 64.5472 10.4337 64.5472 10.7405V30.4055C64.5472 30.7123 64.4496 30.9634 64.2544 31.1586C64.0591 31.3539 63.8081 31.4515 63.5012 31.4515H59.3172ZM59.1917 6.3473C58.9127 6.3473 58.6756 6.24967 58.4804 6.05442C58.2851 5.85916 58.1875 5.60812 58.1875 5.30129V1.95406C58.1875 1.64723 58.2851 1.39619 58.4804 1.20093C58.6756 0.977785 58.9127 0.866211 59.1917 0.866211H63.5849C63.8917 0.866211 64.1428 0.977785 64.338 1.20093C64.5612 1.39619 64.6728 1.64723 64.6728 1.95406V5.30129C64.6728 5.60812 64.5612 5.85916 64.338 6.05442C64.1428 6.24967 63.8917 6.3473 63.5849 6.3473H59.1917Z" fill="black"/>
<path d="M43.6458 31.4513C43.3668 31.4513 43.1297 31.3537 42.9345 31.1584C42.7392 30.9632 42.6416 30.7121 42.6416 30.4053V10.7403C42.6416 10.4614 42.7392 10.2243 42.9345 10.0291C43.1297 9.80591 43.3668 9.69434 43.6458 9.69434H47.7461C48.0251 9.69434 48.2622 9.80591 48.4574 10.0291C48.6806 10.2243 48.7921 10.4614 48.7921 10.7403V12.414C49.4895 11.5493 50.3402 10.8798 51.3444 10.4056C52.3765 9.93143 53.5619 9.69434 54.9008 9.69434H56.7C56.9789 9.69434 57.216 9.79196 57.4112 9.98722C57.6065 10.1825 57.7041 10.4335 57.7041 10.7403V14.3386C57.7041 14.6454 57.6065 14.8965 57.4112 15.0917C57.216 15.287 56.9789 15.3846 56.7 15.3846H53.018C51.7907 15.3846 50.8284 15.7333 50.131 16.4306C49.4337 17.1001 49.085 18.0624 49.085 19.3176V30.4053C49.085 30.7121 48.9874 30.9632 48.7921 31.1584C48.5969 31.3537 48.3458 31.4513 48.039 31.4513H43.6458Z" fill="black"/>
<path d="M36.8561 31.4518C35.1267 31.4518 33.6484 31.1728 32.421 30.615C31.1937 30.0292 30.2593 29.1366 29.6177 27.9372C29.0041 26.7378 28.6973 25.2315 28.6973 23.4184V14.632H25.4337C25.1269 14.632 24.8758 14.5343 24.6806 14.3391C24.4853 14.1438 24.3877 13.8928 24.3877 13.5859V10.7408C24.3877 10.434 24.4853 10.1829 24.6806 9.98767C24.8758 9.79241 25.1269 9.69479 25.4337 9.69479H28.6973V2.79113C28.6973 2.4843 28.7949 2.23326 28.9901 2.038C29.2133 1.84275 29.4643 1.74512 29.7433 1.74512H33.8436C34.1504 1.74512 34.4015 1.84275 34.5967 2.038C34.792 2.23326 34.8896 2.4843 34.8896 2.79113V9.69479H40.1197C40.3986 9.69479 40.6357 9.79241 40.831 9.98767C41.0262 10.1829 41.1238 10.434 41.1238 10.7408V13.5859C41.1238 13.8928 41.0262 14.1438 40.831 14.3391C40.6357 14.5343 40.3986 14.632 40.1197 14.632H34.8896V22.9163C34.8896 23.9763 35.0709 24.8131 35.4336 25.4268C35.8241 26.0125 36.4935 26.3054 37.4419 26.3054H40.4962C40.7752 26.3054 41.0123 26.403 41.2075 26.5983C41.4028 26.7936 41.5004 27.0306 41.5004 27.3096V30.4058C41.5004 30.7126 41.4028 30.9636 41.2075 31.1589C41.0123 31.3542 40.7752 31.4518 40.4962 31.4518H36.8561Z" fill="black"/>
<path fill-rule="evenodd" clip-rule="evenodd" d="M5.88035 30.6987C7.69343 31.4797 9.93887 31.8702 12.6166 31.8702C15.0434 31.8702 17.1633 31.5215 18.9764 30.8242C20.8174 30.0989 22.2539 29.0669 23.2859 27.728C24.3459 26.3891 24.8759 24.7852 24.8759 22.9163C24.8759 21.2427 24.5133 19.862 23.788 18.7741C23.0628 17.6584 21.9331 16.7519 20.399 16.0545C19.6517 15.7149 18.7953 15.3984 17.8296 15.105L13.8466 19.8646C14.2707 19.9924 14.6557 20.1171 15.0016 20.2386C16.0615 20.6012 16.8286 21.0056 17.3028 21.4519C17.8049 21.8982 18.0559 22.484 18.0559 23.2092C18.0559 24.2134 17.5957 25.0084 16.6752 25.5941C15.7826 26.1799 14.4297 26.4728 12.6166 26.4728C11.5009 26.4728 10.5665 26.3333 9.81334 26.0544C9.06022 25.7475 8.46051 25.371 8.01421 24.9247C7.59581 24.4784 7.28898 24.0181 7.09372 23.5439C6.92636 23.3208 6.74505 23.1395 6.5498 23C6.35454 22.8327 6.07561 22.749 5.71299 22.749H1.23607C0.985027 22.749 0.775826 22.8466 0.608464 23.0419C0.441103 23.2092 0.357422 23.4045 0.357422 23.6276C0.413209 25.0502 0.901347 26.3891 1.82183 27.6443C2.74232 28.8995 4.09516 29.9176 5.88035 30.6987ZM11.2406 13.348L7.28219 18.0781C6.64688 17.8533 6.05408 17.6111 5.50379 17.3516C4.05332 16.6263 2.95152 15.7059 2.1984 14.5901C1.47317 13.4465 1.11055 12.0378 1.11055 10.3642C1.11055 8.69062 1.57079 7.21226 2.49128 5.92915C3.41177 4.61816 4.70882 3.60004 6.38243 2.87481C8.05605 2.12168 10.0504 1.74512 12.3656 1.74512C14.2345 1.74512 15.8802 1.99616 17.3028 2.49824C18.7532 3.00033 19.9527 3.65583 20.901 4.46474C21.8773 5.27365 22.6165 6.13836 23.1186 7.05885C23.6207 7.97933 23.8857 8.87193 23.9135 9.73663C23.9135 9.95977 23.8299 10.169 23.6625 10.3642C23.4951 10.5316 23.2859 10.6153 23.0349 10.6153H18.3488C18.0698 10.6153 17.8188 10.5595 17.5957 10.4479C17.3725 10.3363 17.1912 10.1411 17.0517 9.86215C16.8844 9.13691 16.3823 8.50931 15.5455 7.97933C14.7366 7.42146 13.6766 7.14252 12.3656 7.14252C10.9988 7.14252 9.91097 7.39357 9.10206 7.89565C8.32104 8.39774 7.93053 9.16481 7.93053 10.1969C7.93053 10.8663 8.12578 11.4381 8.51629 11.9123C8.9347 12.3586 9.61809 12.7631 10.5665 13.1257C10.7769 13.1979 11.0016 13.2719 11.2406 13.348Z" fill="black"/>
</svg>
