<svg width="24" height="25" viewBox="0 0 24 25" fill="none" xmlns="http://www.w3.org/2000/svg">
<g clip-path="url(#clip0_905_31)">
<path d="M21.7139 23.5973C21.7139 21.8945 21.7139 21.043 21.4986 20.3502C21.0138 18.7903 19.7633 17.5696 18.1653 17.0964C17.4556 16.8862 16.5833 16.8862 14.8389 16.8862H8.58887C6.84442 16.8862 5.97219 16.8862 5.26244 17.0964C3.66444 17.5696 2.41392 18.7903 1.92917 20.3502C1.71387 21.043 1.71387 21.8945 1.71387 23.5973M17.3389 7.12467C17.3389 10.1572 14.8205 12.6156 11.7139 12.6156C8.60727 12.6156 6.08887 10.1572 6.08887 7.12467C6.08887 4.09214 8.60727 1.63379 11.7139 1.63379C14.8205 1.63379 17.3389 4.09214 17.3389 7.12467Z" stroke="black" stroke-width="1.37143" stroke-linecap="round" stroke-linejoin="round"/>
</g>
<defs>
<clipPath id="clip0_905_31">
<rect width="24" height="24" fill="white" transform="translate(0 0.112305)"/>
</clipPath>
</defs>
</svg>
