<svg width="16" height="16" viewBox="0 0 16 16" fill="none" xmlns="http://www.w3.org/2000/svg">
        <path fill-rule="evenodd" clip-rule="evenodd" d="M2.5 2.55001V0H3.5V2.55001C4.64112 2.78164 5.5 3.79052 5.5 5C5.5 6.20948 4.64112 7.21836 3.5 7.44999V16H2.5V7.44999C1.35888 7.21836 0.5 6.20948 0.5 5C0.5 3.79052 1.35888 2.78164 2.5 2.55001ZM7.5 8.55001C6.35888 8.78164 5.5 9.79052 5.5 11C5.5 12.2095 6.35888 13.2184 7.5 13.45V16H8.5V13.45C9.64112 13.2184 10.5 12.2095 10.5 11C10.5 9.79052 9.64112 8.78164 8.5 8.55001V0H7.5V8.55001ZM12.5 2.55001V0H13.5V2.55001C14.6411 2.78164 15.5 3.79052 15.5 5C15.5 6.20948 14.6411 7.21836 13.5 7.44999V16H12.5V7.44999C11.3589 7.21836 10.5 6.20948 10.5 5C10.5 3.79052 11.3589 2.78164 12.5 2.55001ZM3 3.5C2.17157 3.5 1.5 4.17157 1.5 5C1.5 5.82843 2.17157 6.5 3 6.5C3.82843 6.5 4.5 5.82843 4.5 5C4.5 4.17157 3.82843 3.5 3 3.5ZM13 3.5C12.1716 3.5 11.5 4.17157 11.5 5C11.5 5.82843 12.1716 6.5 13 6.5C13.8284 6.5 14.5 5.82843 14.5 5C14.5 4.17157 13.8284 3.5 13 3.5ZM8 9.5C7.17157 9.5 6.5 10.1716 6.5 11C6.5 11.8284 7.17157 12.5 8 12.5C8.82843 12.5 9.5 11.8284 9.5 11C9.5 10.1716 8.82843 9.5 8 9.5Z" fill="currentColor"></path>
</svg>