<svg width="14" height="15" viewBox="0 0 14 15" fill="none" xmlns="http://www.w3.org/2000/svg">
<path d="M12.5941 12.7162C12.6097 12.8544 12.5957 12.9944 12.5533 13.1269C12.5108 13.2593 12.4408 13.3813 12.3478 13.4848C12.2546 13.5881 12.1405 13.6706 12.0132 13.7265C11.8858 13.7826 11.7479 13.8111 11.6088 13.81H1.99152C1.85236 13.8111 1.71456 13.7826 1.58718 13.7265C1.4598 13.6706 1.34573 13.5881 1.25249 13.4848C1.1595 13.3813 1.08948 13.2593 1.04702 13.1269C1.00456 12.9944 0.990631 12.8544 1.00615 12.7162L1.87328 4.94141H11.727L12.5941 12.7162Z" stroke="white" stroke-width="0.732" stroke-linecap="round" stroke-linejoin="round"/>
<path d="M4.33789 4.94159V3.46349C4.33789 2.81014 4.59743 2.18353 5.05941 1.72154C5.52139 1.25955 6.14798 1 6.80133 1C7.45467 1 8.08126 1.25955 8.54324 1.72154C9.00523 2.18353 9.26476 2.81014 9.26476 3.46349V4.94159" stroke="white" stroke-width="0.732" stroke-linecap="round" stroke-linejoin="round"/>
</svg>
