<svg width="14" height="15" viewBox="0 0 14 15" fill="none" xmlns="http://www.w3.org/2000/svg">
<g clip-path="url(#clip0_905_31)">
<path d="M12.3444 13.8121C12.3444 12.8187 12.3444 12.3221 12.2188 11.9179C11.936 11.008 11.2066 10.2959 10.2744 10.0199C9.86038 9.89726 9.35158 9.89726 8.33398 9.89726H4.68816C3.67055 9.89726 3.16175 9.89726 2.74774 10.0199C1.81557 10.2959 1.0861 11.008 0.803326 11.9179C0.677734 12.3221 0.677734 12.8187 0.677734 13.8121M9.79232 4.20302C9.79232 5.97199 8.32325 7.40603 6.51107 7.40603C4.69888 7.40603 3.22982 5.97199 3.22982 4.20302C3.22982 2.43404 4.69888 1 6.51107 1C8.32325 1 9.79232 2.43404 9.79232 4.20302Z" stroke="white" stroke-width="0.8" stroke-linecap="round" stroke-linejoin="round"/>
</g>
<defs>
<clipPath id="clip0_905_31">
<rect width="14" height="14" fill="white" transform="translate(0 0.112305)"/>
</clipPath>
</defs>
</svg>
