<svg width="131" height="20" viewBox="0 0 131 20" fill="none" xmlns="http://www.w3.org/2000/svg">
<path d="M124.845 0.335938V19.6637H120.317V0.335938H124.845ZM131 0.335938V3.69728H114.191V0.335938H131Z" fill="black"/>
<path d="M102.823 0.252197C103.928 0.252197 105.042 0.261534 106.167 0.280208C107.291 0.280208 108.396 0.298882 109.481 0.33623C110.566 0.373579 111.582 0.438938 112.529 0.532309L112.322 3.64155H104.48C103.987 3.64155 103.612 3.76293 103.355 4.0057C103.119 4.24846 103 4.60327 103 5.07012V14.9301C103 15.3969 103.119 15.7517 103.355 15.9945C103.612 16.2373 103.987 16.3586 104.48 16.3586H112.322L112.529 19.4679C111.582 19.5426 110.566 19.6079 109.481 19.664C108.396 19.7013 107.291 19.72 106.167 19.72C105.042 19.7387 103.928 19.748 102.823 19.748C101.521 19.748 100.465 19.3932 99.6564 18.6836C98.8672 17.9553 98.4727 17.0122 98.4727 15.8544V4.14575C98.4727 2.96928 98.8672 2.02624 99.6564 1.31662C100.465 0.607006 101.521 0.252197 102.823 0.252197ZM99.0053 8.09533H111.227V11.1205H99.0053V8.09533Z" fill="black"/>
<path d="M85.7158 0.252197C86.8206 0.252197 87.9352 0.261534 89.0597 0.280208C90.1843 0.280208 91.289 0.298882 92.3741 0.33623C93.4591 0.373579 94.4752 0.438938 95.4221 0.532309L95.215 3.64155H87.373C86.8798 3.64155 86.5049 3.76293 86.2485 4.0057C86.0117 4.24846 85.8934 4.60327 85.8934 5.07012V14.9301C85.8934 15.3969 86.0117 15.7517 86.2485 15.9945C86.5049 16.2373 86.8798 16.3586 87.373 16.3586H95.215L95.4221 19.4679C94.4752 19.5426 93.4591 19.6079 92.3741 19.664C91.289 19.7013 90.1843 19.72 89.0597 19.72C87.9352 19.7387 86.8206 19.748 85.7158 19.748C84.4137 19.748 83.3583 19.3932 82.5494 18.6836C81.7603 17.9553 81.3657 17.0122 81.3657 15.8544V4.14575C81.3657 2.96928 81.7603 2.02624 82.5494 1.31662C83.3583 0.607006 84.4137 0.252197 85.7158 0.252197ZM81.8984 8.09533H94.12V11.1205H81.8984V8.09533Z" fill="black"/>
<path d="M69.3917 0.252197C70.4373 0.252197 71.5026 0.261534 72.5877 0.280208C73.6924 0.280208 74.7676 0.30822 75.8132 0.364242C76.8786 0.40159 77.865 0.466949 78.7725 0.56032L78.5357 3.64155H71.1376C70.605 3.64155 70.2005 3.76293 69.9244 4.0057C69.6482 4.24846 69.5101 4.60327 69.5101 5.07012V19.664H64.9824V4.20178C64.9824 3.00663 65.3869 2.05425 66.1957 1.34463C67.0046 0.616343 68.0699 0.252197 69.3917 0.252197ZM65.5151 8.43147H77.4408V11.4567H65.5151V8.43147Z" fill="black"/>
<path d="M60.9292 0.335938V19.6637H56.4312V0.335938H60.9292Z" fill="black"/>
<path d="M47.7128 0.335938V19.6637H43.1852V0.335938H47.7128ZM53.868 0.335938V3.69728H37.0596V0.335938H53.868Z" fill="black"/>
<path d="M29.193 0C30.1597 0 30.9784 0.0280108 31.6492 0.0840325C32.3397 0.121381 32.971 0.186741 33.5431 0.280112C34.1152 0.373482 34.7071 0.504201 35.3187 0.672269L34.9635 3.80952C34.3125 3.77218 33.7108 3.74416 33.1584 3.72549C32.6257 3.70682 32.0438 3.69748 31.4125 3.69748C30.8009 3.6788 30.0611 3.66947 29.193 3.66947C28.1869 3.66947 27.3978 3.85621 26.8256 4.22969C26.2732 4.60317 25.8787 5.25677 25.6419 6.19048C25.4052 7.10551 25.2868 8.37535 25.2868 10C25.2868 11.6246 25.4052 12.9038 25.6419 13.8375C25.8787 14.7526 26.2732 15.3968 26.8256 15.7703C27.3978 16.1438 28.1869 16.3305 29.193 16.3305C30.5543 16.3305 31.6985 16.3119 32.6257 16.2745C33.553 16.2372 34.4703 16.1718 35.3778 16.0784L35.7625 19.2157C34.8156 19.4958 33.8489 19.6919 32.8625 19.8039C31.8761 19.9346 30.6529 20 29.193 20C27.0821 20 25.3855 19.6825 24.1031 19.0476C22.8405 18.394 21.9232 17.3389 21.351 15.8824C20.7987 14.4258 20.5225 12.465 20.5225 10C20.5225 7.53501 20.7987 5.57423 21.351 4.11765C21.9232 2.66106 22.8405 1.61531 24.1031 0.980391C25.3855 0.326797 27.0821 0 29.193 0Z" fill="black"/>
<path d="M11.8074 0.335938C12.1822 0.335938 12.5077 0.438646 12.7839 0.644062C13.0798 0.849477 13.2771 1.12025 13.3758 1.45639L19.2942 19.6637H14.6778L10.5053 5.46199C10.4264 5.14453 10.3475 4.82707 10.2686 4.50961C10.1896 4.17347 10.1206 3.85601 10.0614 3.55723C10.0022 3.25844 9.3216 3.25844 9.26242 3.55723C9.20323 3.85601 9.13418 4.17347 9.05527 4.50961C8.99608 4.82707 8.91717 5.14453 8.81853 5.46199L4.646 19.6637H0L5.94807 1.45639C6.04671 1.12025 6.23413 0.849477 6.51032 0.644062C6.80625 0.438646 7.14163 0.335938 7.51647 0.335938H11.8074Z" fill="black"/>
</svg>
