<svg width="12" height="12" viewBox="0 0 12 12" fill="none" xmlns="http://www.w3.org/2000/svg">
<path fill-rule="evenodd" clip-rule="evenodd" d="M3.66864 10.4904C4.2085 10.7195 4.8874 10.834 5.70537 10.834C6.42517 10.834 7.06318 10.7276 7.6194 10.515C8.17561 10.3023 8.60913 9.99557 8.91995 9.59477C9.23896 9.18579 9.39846 8.70319 9.39846 8.14698C9.39846 7.64802 9.29213 7.23495 9.07946 6.90777C8.86679 6.5724 8.53142 6.30248 8.07336 6.09799C8.05055 6.08739 8.02738 6.07689 8.00386 6.06648L6.51444 7.5559C6.70345 7.62928 6.84683 7.7118 6.94458 7.80344C7.07545 7.91795 7.14089 8.06518 7.14089 8.24514C7.14089 8.4987 7.01819 8.6991 6.77281 8.84634C6.5356 8.99357 6.17978 9.06719 5.70537 9.06719C5.41908 9.06719 5.17778 9.03447 4.98147 8.96903C4.79334 8.89542 4.63793 8.80135 4.51523 8.68683C4.40072 8.57232 4.31074 8.45372 4.2453 8.33102C4.19623 8.26559 4.13897 8.21242 4.07353 8.17152C4.01628 8.13062 3.93039 8.11017 3.81587 8.11017H2.26993C2.19631 8.11017 2.13087 8.1388 2.07362 8.19606C2.02454 8.24514 2 8.30239 2 8.36783C2.01636 8.79317 2.16359 9.19397 2.4417 9.57023C2.71981 9.9465 3.12879 10.2532 3.66864 10.4904ZM5.71586 5.43942L4.2133 6.94197C3.97651 6.8645 3.75814 6.77948 3.55822 6.68692C3.1247 6.47425 2.79342 6.20023 2.56439 5.86487C2.33536 5.52132 2.22085 5.09598 2.22085 4.58885C2.22085 4.08989 2.3599 3.6441 2.63801 3.25148C2.9243 2.85886 3.32101 2.55212 3.82814 2.33127C4.33528 2.11042 4.93648 2 5.63175 2C6.19614 2 6.69101 2.07362 7.11635 2.22085C7.54987 2.36808 7.91386 2.56439 8.20833 2.80978C8.50279 3.05517 8.72364 3.31692 8.87088 3.59502C9.02629 3.86495 9.10808 4.13079 9.11626 4.39254C9.11626 4.45797 9.09173 4.51932 9.04265 4.57658C8.99357 4.62566 8.93222 4.6502 8.85861 4.6502H7.23904C7.14907 4.6502 7.07136 4.63384 7.00592 4.60112C6.94049 4.5684 6.88323 4.51523 6.83415 4.44162C6.78507 4.26166 6.6542 4.10625 6.44153 3.97538C6.23704 3.83632 5.96711 3.7668 5.63175 3.7668C5.27185 3.7668 4.98965 3.83223 4.78516 3.96311C4.58885 4.0858 4.49069 4.27802 4.49069 4.53977C4.49069 4.70336 4.54386 4.84651 4.6502 4.9692C4.76471 5.09189 4.94875 5.19823 5.20232 5.2882C5.34539 5.33739 5.51657 5.38779 5.71586 5.43942Z" fill="black"/>
</svg>
