<svg width="11" height="13" viewBox="0 0 11 13" fill="none" xmlns="http://www.w3.org/2000/svg">
<path fill-rule="evenodd" clip-rule="evenodd" d="M2.57598 11.5958C3.2982 11.9069 4.19264 12.0625 5.25931 12.0625C6.22598 12.0625 7.07042 11.9236 7.79264 11.6458C8.52598 11.3569 9.0982 10.9458 9.50931 10.4125C9.93153 9.87917 10.1426 9.24028 10.1426 8.49583C10.1426 7.82917 9.9982 7.27917 9.70931 6.84583C9.42042 6.40139 8.97042 6.04028 8.35931 5.7625C8.06164 5.6272 7.72047 5.50112 7.33581 5.38427L5.7492 7.2802C5.91817 7.33111 6.07154 7.38076 6.20931 7.42917C6.63153 7.57361 6.93709 7.73472 7.12598 7.9125C7.32598 8.09028 7.42598 8.32361 7.42598 8.6125C7.42598 9.0125 7.24264 9.32917 6.87598 9.5625C6.52042 9.79583 5.98153 9.9125 5.25931 9.9125C4.81487 9.9125 4.44264 9.85695 4.14264 9.74583C3.84264 9.62361 3.60375 9.47361 3.42598 9.29583C3.25931 9.11806 3.13709 8.93472 3.05931 8.74583C2.99264 8.65695 2.92042 8.58472 2.84264 8.52917C2.76487 8.4625 2.65375 8.42917 2.50931 8.42917H0.725977C0.625977 8.42917 0.542643 8.46806 0.475977 8.54583C0.40931 8.6125 0.375977 8.69028 0.375977 8.77917C0.398199 9.34583 0.592643 9.87917 0.95931 10.3792C1.32598 10.8792 1.86487 11.2847 2.57598 11.5958ZM4.71112 4.68437L3.13434 6.56856C2.88129 6.47902 2.64517 6.38256 2.42598 6.27917C1.8482 5.99028 1.40931 5.62361 1.10931 5.17917C0.820421 4.72361 0.675977 4.1625 0.675977 3.49583C0.675977 2.82917 0.85931 2.24028 1.22598 1.72917C1.59264 1.20694 2.10931 0.801389 2.77598 0.5125C3.44264 0.2125 4.23709 0.0625 5.15931 0.0625C5.90375 0.0625 6.55931 0.1625 7.12598 0.3625C7.70375 0.5625 8.18153 0.823611 8.55931 1.14583C8.9482 1.46806 9.24264 1.8125 9.44264 2.17917C9.64264 2.54583 9.7482 2.90139 9.75931 3.24583C9.75931 3.33472 9.72598 3.41806 9.65931 3.49583C9.59264 3.5625 9.50931 3.59583 9.40931 3.59583H7.54264C7.43153 3.59583 7.33153 3.57361 7.24264 3.52917C7.15375 3.48472 7.08153 3.40694 7.02598 3.29583C6.95931 3.00694 6.75931 2.75694 6.42598 2.54583C6.10375 2.32361 5.68153 2.2125 5.15931 2.2125C4.61487 2.2125 4.18153 2.3125 3.85931 2.5125C3.5482 2.7125 3.39264 3.01806 3.39264 3.42917C3.39264 3.69583 3.47042 3.92361 3.62598 4.1125C3.79264 4.29028 4.06487 4.45139 4.44264 4.59583C4.52646 4.62457 4.61595 4.65408 4.71112 4.68437Z" fill="black"/>
</svg>
