<svg width="20" height="20" viewBox="0 0 20 20" fill="none" xmlns="http://www.w3.org/2000/svg">
<rect width="20" height="20" rx="1" fill="black"/>
<path d="M11.7316 4.05823C11.9453 4.05823 12.1309 4.12009 12.2883 4.24381C12.4571 4.36753 12.5695 4.53062 12.6258 4.73307L16 15.6993H13.3681L10.9893 7.14565C10.9443 6.95444 10.8993 6.76324 10.8543 6.57203C10.8093 6.36958 10.7699 6.17837 10.7362 5.99841C10.7025 5.81845 10.3144 5.81845 10.2807 5.99841C10.2469 6.17837 10.2076 6.36958 10.1626 6.57203C10.1288 6.76324 10.0838 6.95444 10.0276 7.14565L7.64877 15.6993H5L8.3911 4.73307C8.44734 4.53062 8.55419 4.36753 8.71166 4.24381C8.88037 4.12009 9.07158 4.05823 9.28528 4.05823H11.7316Z" fill="white"/>
</svg>
