<svg width="7" height="9" viewBox="0 0 7 9" fill="none" xmlns="http://www.w3.org/2000/svg">
<path fill-rule="evenodd" clip-rule="evenodd" d="M1.47057 7.75139C1.95205 7.9588 2.54835 8.0625 3.25946 8.0625C3.90391 8.0625 4.46687 7.96991 4.94835 7.78472C5.43724 7.59213 5.81872 7.31806 6.09279 6.9625C6.37428 6.60695 6.51502 6.18102 6.51502 5.68472C6.51502 5.24028 6.41872 4.87361 6.22613 4.58472C6.03354 4.28843 5.73354 4.04769 5.32613 3.8625C5.1276 3.77226 4.90004 3.68817 4.64346 3.61024L3.58572 4.8742C3.6985 4.90817 3.80086 4.94131 3.8928 4.97361C4.17428 5.06991 4.37798 5.17732 4.50391 5.29583C4.63724 5.41435 4.70391 5.56991 4.70391 5.7625C4.70391 6.02917 4.58168 6.24028 4.33724 6.39583C4.1002 6.55139 3.74094 6.62917 3.25946 6.62917C2.96317 6.62917 2.71502 6.59213 2.51502 6.51806C2.31502 6.43657 2.15576 6.33657 2.03724 6.21806C1.92613 6.09954 1.84465 5.97732 1.7928 5.85139C1.74835 5.79213 1.7002 5.74398 1.64835 5.70695C1.5965 5.6625 1.52242 5.64028 1.42613 5.64028H0.23724C0.170573 5.64028 0.115017 5.6662 0.0705729 5.71806C0.0261285 5.7625 0.00390625 5.81435 0.00390625 5.87361C0.0187211 6.25139 0.148351 6.60695 0.392795 6.94028C0.63724 7.27361 0.996499 7.54398 1.47057 7.75139ZM2.89368 3.14364L1.8425 4.39976C1.67391 4.3401 1.51661 4.27583 1.37057 4.20694C0.985388 4.01435 0.692795 3.76991 0.492795 3.47361C0.300203 3.16991 0.203906 2.79583 0.203906 2.35139C0.203906 1.90695 0.326129 1.51435 0.570573 1.17361C0.815017 0.825463 1.15946 0.555093 1.60391 0.3625C2.04835 0.1625 2.57798 0.0625 3.1928 0.0625C3.68909 0.0625 4.12613 0.129167 4.50391 0.2625C4.88909 0.395833 5.20761 0.569908 5.45946 0.784722C5.71872 0.999537 5.91502 1.22917 6.04835 1.47361C6.18168 1.71806 6.25205 1.95509 6.25946 2.18472C6.25946 2.24398 6.23724 2.29954 6.1928 2.35139C6.14835 2.39583 6.09279 2.41806 6.02613 2.41806H4.78168C4.70761 2.41806 4.64094 2.40324 4.58168 2.37361C4.52242 2.34398 4.47428 2.29213 4.43724 2.21806C4.3928 2.02546 4.25946 1.8588 4.03724 1.71806C3.82242 1.56991 3.54094 1.49583 3.1928 1.49583C2.82983 1.49583 2.54094 1.5625 2.32613 1.69583C2.11872 1.82917 2.01502 2.03287 2.01502 2.30694C2.01502 2.48472 2.06687 2.63657 2.17057 2.7625C2.28168 2.88102 2.46317 2.98843 2.71502 3.08472C2.7708 3.10385 2.83035 3.12349 2.89368 3.14364Z" fill="black"/>
</svg>
